<svg width="31" height="30" viewBox="0 0 31 30" fill="none" xmlns="http://www.w3.org/2000/svg">
<path d="M19.25 10.4625V9.26248C19.25 5.53748 16.6625 4.11248 13.5125 6.08748L9.8625 8.37498C9.4625 8.61248 9 8.74998 8.5375 8.74998H6.75C4.25 8.74998 3 9.99998 3 12.5V17.5C3 20 4.25 21.25 6.75 21.25H9.25" stroke="black" stroke-width="2.5" stroke-linecap="round" stroke-linejoin="round"/>
<path d="M13.5125 23.9125C16.6625 25.8875 19.25 24.45 19.25 20.7375V16.1875" stroke="black" stroke-width="2.5" stroke-linecap="round" stroke-linejoin="round"/>
<path d="M24.0125 11.7749C25.1375 14.4624 24.8 17.5999 23 19.9999" stroke="black" stroke-width="2.5" stroke-linecap="round" stroke-linejoin="round"/>
<path d="M26.9375 9.75C28.775 14.1125 28.225 19.2125 25.2875 23.125" stroke="black" stroke-width="2.5" stroke-linecap="round" stroke-linejoin="round"/>
<path d="M28 2.5L3 27.5" stroke="black" stroke-width="2.5" stroke-linecap="round" stroke-linejoin="round"/>
</svg>
