<svg width="31" height="30" viewBox="0 0 31 30" fill="none" xmlns="http://www.w3.org/2000/svg">
<path d="M6.34995 27.5C8.50386 27.5 10.25 25.7539 10.25 23.5999C10.25 21.446 8.50386 19.7 6.34995 19.7C4.19604 19.7 2.44995 21.446 2.44995 23.5999C2.44995 25.7539 4.19604 27.5 6.34995 27.5Z" stroke="black" stroke-width="2.5" stroke-linecap="round" stroke-linejoin="round"/>
<path d="M24.55 20.9999V5.74993C24.55 2.49993 22.5125 2.04993 20.45 2.61243L12.65 4.73743C11.225 5.12493 10.25 6.24993 10.25 7.87493V10.5874V12.4124V23.5874" stroke="black" stroke-width="2.5" stroke-linecap="round" stroke-linejoin="round"/>
<path d="M20.65 24.9001C22.8039 24.9001 24.55 23.154 24.55 21.0001C24.55 18.8462 22.8039 17.1001 20.65 17.1001C18.4961 17.1001 16.75 18.8462 16.75 21.0001C16.75 23.154 18.4961 24.9001 20.65 24.9001Z" stroke="black" stroke-width="2.5" stroke-linecap="round" stroke-linejoin="round"/>
<path d="M10.25 11.9L24.55 8" stroke="black" stroke-width="2.5" stroke-linecap="round" stroke-linejoin="round"/>
</svg>
