<svg width="31" height="30" viewBox="0 0 31 30" fill="none" xmlns="http://www.w3.org/2000/svg">
<path d="M13.8125 23.8875V6.1125C13.8125 4.425 13.1 3.75 11.3 3.75H6.7625C4.9625 3.75 4.25 4.425 4.25 6.1125V23.8875C4.25 25.575 4.9625 26.25 6.7625 26.25H11.3C13.1 26.25 13.8125 25.575 13.8125 23.8875Z" stroke="black" stroke-width="2.5" stroke-linecap="round" stroke-linejoin="round"/>
<path d="M26.75 23.8875V6.1125C26.75 4.425 26.0375 3.75 24.2375 3.75H19.7C17.9125 3.75 17.1875 4.425 17.1875 6.1125V23.8875C17.1875 25.575 17.9 26.25 19.7 26.25H24.2375C26.0375 26.25 26.75 25.575 26.75 23.8875Z" stroke="black" stroke-width="2.5" stroke-linecap="round" stroke-linejoin="round"/>
</svg>
