<svg width="657" height="129" viewBox="0 0 657 129" fill="none" xmlns="http://www.w3.org/2000/svg">
<rect width="657" height="129" fill="black"/>
<path d="M0 6H2.86061C3.41289 6 3.86061 6.44772 3.86061 7V14.2386C3.86061 14.7909 3.41289 15.2386 2.86061 15.2386H0V6Z" fill="white"/>
<rect x="16.4076" y="6" width="7.72121" height="9.23858" rx="1" fill="white"/>
<rect x="36.6758" y="6" width="7.72121" height="9.23858" rx="1" fill="white"/>
<rect x="56.9441" y="6" width="7.72121" height="9.23858" rx="1" fill="white"/>
<rect x="77.2123" y="6" width="7.72121" height="9.23858" rx="1" fill="white"/>
<rect x="117.749" y="6" width="7.72121" height="9.23858" rx="1" fill="white"/>
<rect x="138.017" y="6" width="7.72121" height="9.23858" rx="1" fill="white"/>
<rect x="97.4802" y="6" width="7.72121" height="9.23858" rx="1" fill="white"/>
<rect x="158.408" y="6" width="7.72121" height="9.23858" rx="1" fill="white"/>
<rect x="178.676" y="6" width="7.72121" height="9.23858" rx="1" fill="white"/>
<rect x="198.944" y="6" width="7.72121" height="9.23858" rx="1" fill="white"/>
<rect x="219.212" y="6" width="7.72121" height="9.23858" rx="1" fill="white"/>
<rect x="259.749" y="6" width="7.72121" height="9.23858" rx="1" fill="white"/>
<rect x="280.017" y="6" width="7.72121" height="9.23858" rx="1" fill="white"/>
<rect x="239.48" y="6" width="7.72121" height="9.23858" rx="1" fill="white"/>
<rect x="300.408" y="6" width="7.72121" height="9.23858" rx="1" fill="white"/>
<rect x="320.676" y="6" width="7.72121" height="9.23858" rx="1" fill="white"/>
<rect x="340.944" y="6" width="7.72121" height="9.23858" rx="1" fill="white"/>
<rect x="361.212" y="6" width="7.72121" height="9.23858" rx="1" fill="white"/>
<rect x="401.749" y="6" width="7.72121" height="9.23858" rx="1" fill="white"/>
<rect x="422.017" y="6" width="7.72121" height="9.23858" rx="1" fill="white"/>
<rect x="381.48" y="6" width="7.72121" height="9.23858" rx="1" fill="white"/>
<rect x="442.408" y="6" width="7.72121" height="9.23858" rx="1" fill="white"/>
<rect x="462.676" y="6" width="7.72121" height="9.23858" rx="1" fill="white"/>
<rect x="482.944" y="6" width="7.72121" height="9.23858" rx="1" fill="white"/>
<rect x="503.212" y="6" width="7.72121" height="9.23858" rx="1" fill="white"/>
<rect x="543.749" y="6" width="7.72121" height="9.23858" rx="1" fill="white"/>
<rect x="564.017" y="6" width="7.72121" height="9.23858" rx="1" fill="white"/>
<rect x="523.48" y="6" width="7.72121" height="9.23858" rx="1" fill="white"/>
<rect x="583.805" y="6" width="7.72121" height="9.23858" rx="1" fill="white"/>
<rect x="624.341" y="6" width="7.72121" height="9.23858" rx="1" fill="white"/>
<rect x="644.609" y="6" width="7.72121" height="9.23858" rx="1" fill="white"/>
<rect x="604.073" y="6" width="7.72121" height="9.23858" rx="1" fill="white"/>
<path d="M0 114H2.86061C3.41289 114 3.86061 114.448 3.86061 115V122.239C3.86061 122.791 3.41289 123.239 2.86061 123.239H0V114Z" fill="white"/>
<rect x="16.4076" y="114" width="7.72121" height="9.23858" rx="1" fill="white"/>
<rect x="36.6758" y="114" width="7.72121" height="9.23858" rx="1" fill="white"/>
<rect x="56.9441" y="114" width="7.72121" height="9.23858" rx="1" fill="white"/>
<rect x="77.2123" y="114" width="7.72121" height="9.23858" rx="1" fill="white"/>
<rect x="117.749" y="114" width="7.72121" height="9.23858" rx="1" fill="white"/>
<rect x="138.017" y="114" width="7.72121" height="9.23858" rx="1" fill="white"/>
<rect x="97.4802" y="114" width="7.72121" height="9.23858" rx="1" fill="white"/>
<rect x="158.408" y="114" width="7.72121" height="9.23858" rx="1" fill="white"/>
<rect x="178.676" y="114" width="7.72121" height="9.23858" rx="1" fill="white"/>
<rect x="198.944" y="114" width="7.72121" height="9.23858" rx="1" fill="white"/>
<rect x="219.212" y="114" width="7.72121" height="9.23858" rx="1" fill="white"/>
<rect x="259.749" y="114" width="7.72121" height="9.23858" rx="1" fill="white"/>
<rect x="280.017" y="114" width="7.72121" height="9.23858" rx="1" fill="white"/>
<rect x="239.48" y="114" width="7.72121" height="9.23858" rx="1" fill="white"/>
<rect x="300.408" y="114" width="7.72121" height="9.23858" rx="1" fill="white"/>
<rect x="320.676" y="114" width="7.72121" height="9.23858" rx="1" fill="white"/>
<rect x="340.944" y="114" width="7.72121" height="9.23858" rx="1" fill="white"/>
<rect x="361.212" y="114" width="7.72121" height="9.23858" rx="1" fill="white"/>
<rect x="401.749" y="114" width="7.72121" height="9.23858" rx="1" fill="white"/>
<rect x="422.017" y="114" width="7.72121" height="9.23858" rx="1" fill="white"/>
<rect x="381.48" y="114" width="7.72121" height="9.23858" rx="1" fill="white"/>
<rect x="442.408" y="114" width="7.72121" height="9.23858" rx="1" fill="white"/>
<rect x="462.676" y="114" width="7.72121" height="9.23858" rx="1" fill="white"/>
<rect x="482.944" y="114" width="7.72121" height="9.23858" rx="1" fill="white"/>
<rect x="503.212" y="114" width="7.72121" height="9.23858" rx="1" fill="white"/>
<rect x="543.749" y="114" width="7.72121" height="9.23858" rx="1" fill="white"/>
<rect x="564.017" y="114" width="7.72121" height="9.23858" rx="1" fill="white"/>
<rect x="523.48" y="114" width="7.72121" height="9.23858" rx="1" fill="white"/>
<rect x="583.805" y="114" width="7.72121" height="9.23858" rx="1" fill="white"/>
<rect x="624.341" y="114" width="7.72121" height="9.23858" rx="1" fill="white"/>
<rect x="644.609" y="114" width="7.72121" height="9.23858" rx="1" fill="white"/>
<rect x="604.073" y="114" width="7.72121" height="9.23858" rx="1" fill="white"/>
</svg>
