<svg width="31" height="30" viewBox="0 0 31 30" fill="none" xmlns="http://www.w3.org/2000/svg">
<path d="M3 12.5V17.5C3 20 4.25 21.25 6.75 21.25H8.5375C9 21.25 9.4625 21.3875 9.8625 21.625L13.5125 23.9125C16.6625 25.8875 19.25 24.45 19.25 20.7375V9.26248C19.25 5.53748 16.6625 4.11248 13.5125 6.08748L9.8625 8.37498C9.4625 8.61248 9 8.74998 8.5375 8.74998H6.75C4.25 8.74998 3 9.99998 3 12.5Z" stroke="black" stroke-width="2.5"/>
<path d="M23 10C25.225 12.9625 25.225 17.0375 23 20" stroke="black" stroke-width="2.5" stroke-linecap="round" stroke-linejoin="round"/>
<path d="M25.2875 6.875C28.9 11.6875 28.9 18.3125 25.2875 23.125" stroke="black" stroke-width="2.5" stroke-linecap="round" stroke-linejoin="round"/>
</svg>
