<svg width="30" height="30" viewBox="0 0 30 30" fill="none" xmlns="http://www.w3.org/2000/svg">
<path d="M26.8374 23.75V6.25C26.8374 3.75 25.5874 2.5 23.0874 2.5H18.0874C15.5874 2.5 14.3374 3.75 14.3374 6.25V23.75C14.3374 26.25 15.5874 27.5 18.0874 27.5H23.0874C25.5874 27.5 26.8374 26.25 26.8374 23.75Z" stroke="black" stroke-width="2.5" stroke-linecap="round"/>
<path d="M14.3374 7.5H20.5874" stroke="black" stroke-width="2.5" stroke-linecap="round"/>
<path d="M14.3374 22.5H19.3374" stroke="black" stroke-width="2.5" stroke-linecap="round"/>
<path d="M14.3374 17.4375L20.5874 17.5" stroke="black" stroke-width="2.5" stroke-linecap="round"/>
<path d="M14.3374 12.5H18.0874" stroke="black" stroke-width="2.5" stroke-linecap="round"/>
<path d="M6.8626 2.5C4.8251 2.5 3.1626 4.1625 3.1626 6.1875V22.3875C3.1626 22.95 3.4001 23.8 3.6876 24.2875L4.7126 25.9875C5.8876 27.95 7.8251 27.95 9.0001 25.9875L10.0251 24.2875C10.3126 23.8 10.5501 22.95 10.5501 22.3875V6.1875C10.5501 4.1625 8.8876 2.5 6.8626 2.5Z" stroke="black" stroke-width="2.5" stroke-linecap="round"/>
<path d="M10.5501 8.75H3.1626" stroke="black" stroke-width="2.5" stroke-linecap="round"/>
</svg>
